<?xml version="1.0" encoding="UTF-8"?>
<!DOCTYPE svg PUBLIC "-//W3C//DTD SVG 1.1//EN" "http://www.w3.org/Graphics/SVG/1.1/DTD/svg11.dtd">
<!-- Creator: CorelDRAW 2018 (64 Bit Versão de avaliação) -->
<svg version="1.1" shape-rendering="geometricPrecision" text-rendering="geometricPrecision" image-rendering="optimizeQuality" fill-rule="evenodd" clip-rule="evenodd" viewBox="0 0 5115 5115">
  <metadata id="CorelCorpID_0Corel-Layer"/>
  <path fill="white" fill-rule="nonzero" d="M613 1164l3871 0c186,0 355,76 477,198 122,122 198,291 198,477l0 1081c0,186 -76,355 -198,477 -122,122 -291,198 -477,198l-3871 0c-186,0 -355,-76 -477,-198 -122,-122 -198,-291 -198,-477l0 -1081c0,-186 76,-355 198,-477 122,-122 291,-198 477,-198zm3871 282l-3871 0c-108,0 -207,44 -278,116 -71,71 -116,170 -116,278l0 1081c0,108 44,207 116,278 71,71 170,116 278,116l3871 0c108,0 207,-44 278,-116 71,-71 116,-170 116,-278l0 -1081c0,-108 -44,-207 -116,-278 -71,-71 -170,-116 -278,-116z"/>
  <path fill="white" fill-rule="nonzero" d="M1251 2161l103 0 316 165 0 -165 103 0 0 506 -103 0 0 -232 -316 -164 0 397 -103 0 0 -506zm664 0l431 0 0 90 -329 0 0 101 291 0 0 85 -291 0 0 141 335 0 0 90 -438 0 0 -506zm487 0l112 0 137 327 32 79 25 -79 51 -119 -91 -208 106 0 37 99 35 -99 106 0 -91 208 52 122 31 77 24 -78 138 -328 112 0 -224 506 -102 0 -45 -100 -37 -98 -37 98 -46 100 -102 0 -224 -506zm917 356c18,10 37,20 56,28 19,8 38,15 59,21 20,6 42,10 64,13 22,3 46,5 71,5 30,0 56,-2 78,-6 21,-4 39,-10 52,-16 14,-7 23,-15 30,-25 6,-10 9,-20 9,-32 0,-18 -8,-33 -23,-44 -15,-11 -39,-16 -71,-16 -14,0 -29,1 -44,3 -15,2 -31,4 -47,6 -16,2 -32,4 -47,6 -15,2 -30,3 -44,3 -23,0 -44,-3 -65,-9 -21,-6 -39,-14 -55,-26 -16,-12 -29,-26 -38,-44 -10,-18 -14,-38 -14,-61 0,-14 2,-28 6,-41 4,-14 10,-27 18,-39 8,-12 19,-24 32,-35 13,-11 29,-20 48,-28 19,-8 40,-14 65,-18 24,-4 52,-7 84,-7 23,0 45,1 68,4 23,2 45,6 67,11 22,5 43,10 63,16 20,6 39,14 56,21l-45 83c-14,-6 -30,-12 -46,-17 -16,-5 -34,-10 -52,-14 -18,-4 -37,-7 -56,-9 -19,-2 -39,-3 -58,-3 -28,0 -52,2 -70,6 -18,4 -33,9 -44,16 -11,6 -18,13 -22,21 -4,8 -6,16 -6,23 0,15 7,28 20,37 14,10 34,14 62,14 11,0 24,-1 39,-2 15,-2 30,-3 46,-5 16,-2 33,-4 49,-5 17,-2 33,-2 49,-2 30,0 56,3 79,10 23,7 42,16 58,29 16,13 27,27 35,45 8,18 12,37 12,59 0,29 -7,55 -20,78 -13,23 -33,42 -58,58 -25,16 -55,28 -90,36 -35,8 -74,12 -118,12 -29,0 -56,-2 -84,-5 -27,-4 -53,-9 -78,-15 -25,-7 -49,-14 -71,-24 -23,-9 -43,-19 -63,-30l55 -83z"/>
   <polygon fill="white" points="3180,3233 2548,3864 1917,3233 "/>
  <path fill="white" fill-rule="nonzero" d="M3280 3333l-632 632c-55,55 -144,55 -200,0l-632 -632 200 -200 532 532 532 -532 200 200z"/>
</svg>
