<?xml version="1.0" encoding="UTF-8"?>
<!DOCTYPE svg PUBLIC "-//W3C//DTD SVG 1.1//EN" "http://www.w3.org/Graphics/SVG/1.1/DTD/svg11.dtd">
<!-- Creator: CorelDRAW 2018 (64 Bit Versão de avaliação) -->
<svg version="1.1" shape-rendering="geometricPrecision" text-rendering="geometricPrecision" image-rendering="optimizeQuality" fill-rule="evenodd" clip-rule="evenodd" viewBox="0 0 5115 5115">
  <metadata id="CorelCorpID_0Corel-Layer"/>
  <path fill="white" fill-rule="nonzero" d="M4413 3076l-59 0 0 1216 59 0c16,0 31,-7 42,-17 11,-11 17,-25 17,-42l0 -1099c0,-16 -7,-31 -17,-41 -11,-11 -25,-17 -41,-17zm-4026 -282l41 0 0 -486c0,-489 200,-933 522,-1255 219,-219 494,-381 801,-463 74,-141 287,-471 670,-471 407,0 593,356 646,480 293,84 556,243 766,453 322,322 522,766 522,1255l0 486 59 0c94,0 179,38 241,100 62,62 100,147 100,241l0 1099c0,94 -38,179 -100,240l-1 1c-62,62 -147,100 -240,100l-102 0c-39,111 -102,211 -184,292 -140,140 -333,227 -546,227l-2380 0c-213,0 -406,-87 -546,-227 -82,-82 -145,-181 -184,-292l-84 0c-94,0 -179,-38 -240,-100l-1 -1c-62,-62 -100,-147 -100,-240l0 -1099c0,-94 38,-179 100,-241 62,-62 147,-100 241,-100zm323 76c11,21 18,45 18,70l0 1489c0,6 0,12 -1,19 23,84 67,160 128,220 89,89 212,144 347,144l2380 0c135,0 258,-55 347,-144 89,-89 144,-212 144,-347l0 -1381 0 -632c0,-411 -168,-784 -439,-1055 -271,-271 -644,-439 -1055,-439l-373 0c-411,0 -784,168 -1055,439 -271,271 -439,644 -439,1055l0 562zm-282 1423l0 -740 0 -476 -41 0c-16,0 -31,7 -41,17 -11,11 -17,25 -17,41l0 1099c0,16 7,31 17,42 11,11 25,17 42,17l41 0zm2272 -3757c-63,-71 -154,-133 -280,-133 -121,0 -216,60 -287,131 24,-1 47,-1 71,-1l373 0c41,0 82,1 123,4z"/>
  <path fill="white" fill-rule="nonzero" d="M1746 2754l1363 0c189,0 361,77 486,202 125,125 202,297 202,486l0 415c0,189 -77,361 -202,486 -125,125 -297,202 -486,202l-1363 0c-189,0 -361,-77 -486,-202 -125,-125 -202,-297 -202,-486l0 -415c0,-189 77,-361 202,-486 125,-125 297,-202 486,-202zm1363 282l-1363 0c-111,0 -213,46 -286,119 -74,74 -119,175 -119,286l0 415c0,111 46,213 119,286 74,74 175,119 286,119l1363 0c111,0 213,-46 286,-119 74,-74 119,-175 119,-286l0 -415c0,-111 -46,-213 -119,-286 -74,-74 -175,-119 -286,-119z"/>
  <path fill="white" fill-rule="nonzero" d="M1522 3991l2 141 -282 3 -2 -141 282 -3zm1975 -22l2 141 -282 3 -2 -141 282 -3zm-988 11l2 141 -282 3 -2 -141 282 -3z"/>
  <path fill="white" fill-rule="nonzero" d="M1357 2322c0,78 -63,141 -141,141 -78,0 -141,-63 -141,-141 0,-4 -17,-1233 1345,-1233 1363,0 1344,1263 1344,1267 0,78 -63,141 -141,141 -78,0 -141,-63 -141,-141 0,-3 15,-984 -1062,-984 -1078,0 -1064,948 -1064,951z"/>
  <path fill="white" d="M3640 2538l0 0c48,0 88,40 88,88l0 88c0,48 -40,88 -88,88l0 0c-48,0 -88,-40 -88,-88l0 -88c0,-48 40,-88 88,-88z"/>
</svg>
