<?xml version="1.0" encoding="UTF-8"?>
<!DOCTYPE svg PUBLIC "-//W3C//DTD SVG 1.1//EN" "http://www.w3.org/Graphics/SVG/1.1/DTD/svg11.dtd">
<!-- Creator: CorelDRAW 2018 (64 Bit Versão de avaliação) -->
<svg version="1.1" shape-rendering="geometricPrecision" text-rendering="geometricPrecision" image-rendering="optimizeQuality" fill-rule="evenodd" clip-rule="evenodd" viewBox="0 0 5115 5115">
  <metadata id="CorelCorpID_0Corel-Layer"/>
  <path fill="white" fill-rule="nonzero" d="M1560 189l1999 0 0 -1c197,0 375,80 505,210 129,129 209,308 209,505l1 0 -1 0 0 3135 1 0c0,197 -80,375 -210,505 -129,129 -308,210 -505,210l0 -1 -1999 0 0 1c-197,0 -375,-80 -505,-210 -129,-129 -210,-308 -210,-505l1 0 0 -3134 -1 0c0,-197 80,-375 210,-505 129,-129 308,-209 505,-209l0 -1 0 1zm-433 1351l865 -34 374 -566 1626 0 0 -37 -1 0 1 0c0,-118 -49,-226 -128,-305 -78,-78 -186,-127 -305,-127l0 -1 -1999 0 0 1 0 -1c-118,0 -226,49 -305,128 -78,78 -127,186 -127,305l-1 0 0 637zm2865 -319l-1474 0 -370 560 -1021 40 0 2216 1 0c0,119 49,227 127,305 78,78 186,127 305,127l0 1 1999 0 0 -1c119,0 227,-49 305,-127 78,-78 127,-186 127,-305l1 0 0 -2816z"/>
  <polygon fill="white" points="1642,2069 3455,2069 3455,3277 1642,3277 "/>
  <path fill="white" d="M1909 3540c114,31 181,147 151,261 -31,114 -147,181 -261,151 -114,-31 -181,-147 -151,-261 31,-114 147,-181 261,-151z"/>
  <polygon fill="white" points="2848,4205 2848,3974 2617,3974 2617,3654 2848,3654 2848,3423 3168,3423 3168,3654 3399,3654 3399,3974 3168,3974 3168,4205 "/>
  <path fill="white" d="M2502 582c47,13 76,61 63,109 -13,47 -61,76 -109,63 -47,-13 -76,-61 -63,-109 13,-47 61,-76 109,-63z"/>
  <path fill="white" d="M2817 574c47,13 76,61 63,109 -13,47 -61,76 -109,63 -47,-13 -76,-61 -63,-109 13,-47 61,-76 109,-63z"/>
  <path fill="white" d="M3132 566c47,13 76,61 63,109 -13,47 -61,76 -109,63 -47,-13 -76,-61 -63,-109 13,-47 61,-76 109,-63z"/>
  <path fill="white" fill-rule="nonzero" d="M1771 594c111,30 199,102 253,195 53,92 71,205 42,315 -30,111 -102,199 -195,253 -92,53 -205,71 -315,42 -111,-30 -199,-102 -253,-195 -53,-92 -71,-205 -42,-315 30,-111 102,-199 195,-253 92,-53 205,-71 315,-42zm9 335c-17,-29 -46,-53 -82,-62 -36,-10 -73,-4 -103,13 -29,17 -53,46 -62,82 -10,36 -4,73 13,103 17,29 46,53 82,62 36,10 73,4 103,-13 29,-17 53,-46 62,-82 10,-36 4,-73 -13,-103z"/>
</svg>
