<?xml version="1.0" encoding="UTF-8"?>
<!DOCTYPE svg PUBLIC "-//W3C//DTD SVG 1.1//EN" "http://www.w3.org/Graphics/SVG/1.1/DTD/svg11.dtd">
<!-- Creator: CorelDRAW 2018 (64 Bit Versão de avaliação) -->
<svg width="51.1528mm" height="51.1528mm" version="1.1" shape-rendering="geometricPrecision" text-rendering="geometricPrecision" image-rendering="optimizeQuality" fill-rule="evenodd" clip-rule="evenodd" viewBox="0 0 5115 5115">
  <metadata id="CorelCorpID_0Corel-Layer"/>
  <path fill="white" fill-rule="nonzero" d="M2567 96c687,0 1309,278 1759,728 450,450 728,1072 728,1759 0,687 -278,1309 -728,1759 -450,450 -1072,728 -1759,728 -687,0 -1309,-278 -1759,-728 -450,-450 -728,-1072 -728,-1759 0,-687 278,-1309 728,-1759 450,-450 1072,-728 1759,-728zm1559 928c-399,-399 -950,-646 -1559,-646 -609,0 -1160,247 -1559,646 -399,399 -646,950 -646,1559 0,609 247,1160 646,1559 399,399 950,646 1559,646 609,0 1160,-247 1559,-646 399,-399 646,-950 646,-1559 0,-609 -247,-1160 -646,-1559z"/>
  <path fill="white" fill-rule="nonzero" d="M2917 2958l-1614 740c-71,32 -154,1 -186,-69 -22,-48 -15,-101 14,-141l0 0 1005 -1383c18,-25 43,-42 71,-51 5,-3 11,-6 17,-9l0 0 1637 -721c71,-31 154,1 186,72 23,52 12,109 -23,149l-1019 1360c-22,29 -53,48 -87,54zm-623 -24c-105,-64 -178,-168 -205,-286l-414 570 619 -284zm419 -798c140,62 237,190 262,337l507 -676 -769 339z"/>
  <path fill="white" fill-rule="nonzero" d="M4147 2428l-1 -11c-33,-312 -152,-596 -350,-840l-137 112c167,205 271,442 306,704 2,17 4,35 6,52l176 -17zm-402 -909c-210,-233 -485,-399 -789,-475l-42 171c270,68 514,215 700,422l131 -119zm-1344 -515c-311,33 -596,153 -839,350l-9 8 113 135 7 -6c216,-176 469,-282 746,-311l-19 -175zm-1208 783c-157,271 -229,582 -210,895l0 2 176 -12c-3,-41 -3,-86 -2,-128 7,-236 71,-465 189,-669l-153 -88zm-78 1438c58,132 133,252 224,363 109,132 232,242 376,335l94 -149c-127,-81 -238,-180 -334,-297 -81,-100 -147,-206 -199,-324l-161 72zm1116 909l28 6c300,58 605,32 890,-79l-65 -164c-259,102 -543,124 -815,65l0 0 -37 172zm1392 -366c235,-209 401,-481 481,-785l-171 -43 -2 8c-72,268 -217,505 -425,689l118 131z"/>
</svg>
