<?xml version="1.0" encoding="utf-8"?>
<!-- Generator: Adobe Illustrator 25.2.1, SVG Export Plug-In . SVG Version: 6.00 Build 0)  -->
<svg version="1.1" id="Camada_1" xmlns="http://www.w3.org/2000/svg" xmlns:xlink="http://www.w3.org/1999/xlink" x="0px" y="0px"
	 viewBox="0 0 512 512" style="enable-background:new 0 0 512 512;" xml:space="preserve">
<style type="text/css">
	.st0{fill: #D84219;}
	.st1{fill: #E99269;}
	.st2{fill: #EEAA87;}
	.st3{fill: #E47C50;}
	.st4{fill: #FFFFFF;}
</style>
<g>
	<circle class="st0" cx="256" cy="256" r="256"/>
	<path class="st1" d="M272.68,1.27c-0.86,0-1.71,0-2.57,0.01c-0.93-0.3-0.96-0.66-0.08-1.09c0.86,0,1.72,0,2.58,0
		c0.54,0.21,0.73,0.44,0.57,0.69C273.02,1.14,272.85,1.27,272.68,1.27z"/>
	<path class="st2" d="M272.68,1.27c-0.03-0.36-0.05-0.72-0.06-1.08c0.86,0,1.72,0,2.58,0C274.79,1.57,273.73,1.4,272.68,1.27z"/>
	<path class="st2" d="M240.32,1.26c-1.04,0.12-2.1,0.29-2.51-1.08c0.86,0,1.72,0,2.58,0C241.27,0.6,241.25,0.96,240.32,1.26z"/>
	<path class="st1" d="M240.32,1.26c0.03-0.36,0.05-0.72,0.07-1.08c0.86,0,1.72,0,2.58,0c0.88,0.43,0.85,0.79-0.08,1.09
		C242.03,1.27,241.18,1.27,240.32,1.26z"/>
	<path class="st3" d="M242.89,1.27c0.03-0.36,0.06-0.72,0.08-1.09c0.86,0,1.72,0,2.58,0C244.91,1.17,243.97,1.4,242.89,1.27z"/>
	<path class="st3" d="M270.03,0.19c0.02,0.36,0.04,0.73,0.08,1.09c-1.08,0.12-2.02-0.11-2.65-1.09
		C268.32,0.19,269.18,0.19,270.03,0.19z"/>
	<path class="st4" d="M257.36,474.48c-26.85,0-53.7-0.1-80.55,0.1c-4.61,0.03-6.47-0.89-6.25-5.96c0.42-9.65,0.3-19.33,0.04-28.99
		c-0.11-4.04,1.34-5.69,5.17-4.93c11.03,2.17,18.34-3.14,25.48-10.88c4.86-5.27,8.16-10.11,7.02-17.4
		c-0.36-2.31,0.32-4.79-0.12-7.07c-3.19-16.59,3.46-28.8,16.4-38.59c2.55-1.93,4.76-3.2,8-3.15c9.66,0.15,19.34-0.1,29,0.13
		c3.76,0.09,6.17-1.57,9.05-3.73c12.02-8.99,16.96-20.25,15.01-35.43c-1.28-9.93-0.24-20.16-0.24-30.26c0-1.29-0.1-2.59,0.03-3.86
		c0.53-5.05,19.49-22.37,24.6-22.38c35.23-0.03,70.46,0.02,105.69-0.08c3.31-0.01,5.65,1.06,7.87,3.4
		c4.43,4.68,8.98,9.25,13.67,13.66c2.23,2.09,3,4.34,3,7.35c-0.09,35.87-0.08,71.75,0,107.62c0.01,2.79-0.55,5.05-2.8,6.76
		c-0.17,0.13-0.33,0.28-0.46,0.45c-9.54,13.33-22.03,18.78-38.64,16.47c-9.69-1.35-19.73-0.11-29.61-0.31
		c-3.7-0.07-6.2,1.36-9.13,3.55c-12.19,9.16-17.43,20.71-15.08,36.03c0.82,5.36,2.5,12.67-0.86,16.16
		c-3.68,3.82-10.99,1.22-16.69,1.26C303.77,474.58,280.56,474.48,257.36,474.48z"/>
	<path class="st4" d="M170.09,261.88c23.61,0,47.22,0.11,70.83-0.1c4.48-0.04,7.22,1.89,10.6,4.51
		c13.44,10.39,16.29,23.61,16.6,40.22c0.3,16.06-10.27,22.83-18.44,32.35c-1.52,1.77-4.05,1.09-6.15,1.1
		c-9.87,0.04-19.75,0.16-29.62-0.06c-3.77-0.08-6.12,1.61-8.96,3.85c-12.36,9.71-17.91,21.95-14.79,37.47
		c3.42,17.04-10.37,24.32-19.01,34.53c-1.35,1.59-3.67,0.84-5.56,0.84c-22.54,0.03-45.07-0.04-67.61,0.08
		c-3.47,0.02-5.76-1.29-8.44-3.43c-12.58-10.02-16.5-22.46-15.75-38.6c1.35-28.7,0.44-57.5,0.31-86.26c-0.02-3.7,1.51-6.16,3.5-9.13
		c9.62-14.4,22.36-19.38,39.73-17.73C134.77,263.18,152.49,261.88,170.09,261.88z"/>
	<path class="st4" d="M168.21,158.19c0-21.69-0.02-43.38,0-65.08c0.01-15.46,6.5-22.03,21.69-22.03c12.89,0,25.77,0,38.66,0
		c13.34,0,20.54,7.13,20.59,20.64c0.08,23.41,0.02,46.82,0.02,70.23c0,20.4,0.02,40.81-0.01,61.21
		c-0.02,14.73-7.43,22.16-22.11,22.19c-12.89,0.03-25.77,0.09-38.66-0.02c-12.36-0.11-20.09-7.79-20.15-20.14
		C168.14,202.86,168.21,180.53,168.21,158.19z"/>
	<path class="st4" d="M346.15,157.91c0,22.12,0.04,44.24-0.01,66.36c-0.04,13.61-7.5,21.03-21.13,21.08
		c-13.1,0.06-26.2,0.08-39.3-0.01c-12.36-0.09-20.33-7.63-20.38-19.98c-0.16-44.88-0.01-89.77-0.11-134.65
		c-0.02-9.6,7.12-20.65,20.36-19.82c13.69,0.85,27.48,0.18,41.22,0.19c11.79,0.01,19.24,7.23,19.31,19.17
		C346.24,112.81,346.15,135.36,346.15,157.91z"/>
	<path class="st4" d="M155.18,170.31c0,17.83,0.03,35.65-0.01,53.48c-0.03,13.94-7.56,21.52-21.42,21.57
		c-13.1,0.05-26.2,0.09-39.3-0.02c-12.27-0.1-20.21-7.89-20.24-20.11c-0.1-36.72-0.1-73.45,0-110.18
		c0.03-12.41,8.16-20.4,20.74-20.54c13.1-0.15,26.2-0.14,39.3,0c12.85,0.13,20.86,8.2,20.92,21.04
		C155.24,133.8,155.18,152.05,155.18,170.31z"/>
	<path class="st4" d="M357.71,169.79c0-17.83-0.03-35.65,0.01-53.48c0.03-14.1,7.77-21.78,22.02-21.83
		c12.46-0.05,24.91-0.08,37.37,0.01c13.64,0.09,21.55,8.02,21.57,21.73c0.05,35.87,0.05,71.73,0,107.6
		c-0.02,13.89-7.64,21.5-21.47,21.54c-13.1,0.04-26.2,0.09-39.3-0.02c-12.34-0.1-20.1-7.82-20.17-20.14
		C357.64,206.73,357.71,188.26,357.71,169.79z"/>
</g>
</svg>
